<svg width="85" height="88" viewBox="0 0 85 88" fill="none" xmlns="http://www.w3.org/2000/svg">
<path d="M19.3667 61.1797V63.4481H16.2852V72.8426H13.439V63.4481H10.3574V61.1797H19.3881H19.3667Z" fill="black"/>
<path d="M29.0395 64.5396C29.6814 65.2458 30.0024 66.2088 30.0024 67.4286V72.8427H27.1777V67.8138C27.1777 67.1932 27.0065 66.7224 26.6855 66.3586C26.3645 66.0162 25.9365 65.845 25.3801 65.845C24.8237 65.845 24.3957 66.0162 24.0747 66.3586C23.7537 66.701 23.5825 67.1932 23.5825 67.8138V72.8427H20.7363V60.5378H23.5825V64.8178C23.8607 64.4112 24.2673 64.0902 24.7595 63.8334C25.2517 63.598 25.8081 63.4696 26.4287 63.4696C27.4987 63.4696 28.3547 63.812 28.9966 64.5182L29.0395 64.5396Z" fill="black"/>
<path d="M40.6812 68.9052H34.2612C34.304 69.483 34.4966 69.911 34.8176 70.232C35.1386 70.5316 35.5452 70.6814 36.016 70.6814C36.7222 70.6814 37.2144 70.3818 37.4926 69.7826H40.51C40.3602 70.3818 40.082 70.9382 39.6754 71.4304C39.2688 71.9226 38.7552 72.3078 38.156 72.586C37.5568 72.8642 36.872 72.9926 36.1016 72.9926C35.3312 72.9926 34.3896 72.8 33.6834 72.4148C32.9772 72.0296 32.4208 71.4732 32.0142 70.7456C31.6076 70.018 31.415 69.1834 31.415 68.2204C31.415 67.2574 31.6076 66.4228 32.0142 65.6952C32.3994 64.9676 32.9558 64.4112 33.662 64.026C34.3682 63.6408 35.1814 63.4482 36.1016 63.4482C37.0218 63.4482 37.7922 63.6408 38.4984 64.0046C39.2046 64.3898 39.7396 64.9248 40.1248 65.6096C40.51 66.3158 40.724 67.129 40.724 68.0492C40.724 68.9694 40.724 68.5842 40.6812 68.8838V68.9052ZM37.8136 67.3216C37.8136 66.8294 37.6424 66.4442 37.3214 66.166C36.979 65.8878 36.5724 65.738 36.0802 65.738C35.588 65.738 35.2028 65.8664 34.8818 66.1446C34.5608 66.4228 34.3468 66.808 34.2826 67.3216H37.835H37.8136Z" fill="black"/>
<path d="M53.478 64.882C53.264 64.4968 52.9644 64.1972 52.5792 63.9832C52.194 63.7692 51.7232 63.6836 51.1882 63.6836C50.2681 63.6836 49.5405 63.9832 48.9841 64.5824C48.4277 65.1816 48.1495 65.9948 48.1495 67.0006C48.1495 68.0064 48.4491 68.9052 49.0269 69.5257C49.6047 70.1249 50.4179 70.4245 51.4236 70.4245C52.4294 70.4245 52.7076 70.2533 53.1998 69.8895C53.692 69.5257 54.0344 69.0336 54.2484 68.3702H50.6532V66.273H56.8378V68.9052C56.6238 69.6113 56.26 70.2747 55.7678 70.8739C55.2542 71.4731 54.6336 71.9867 53.8418 72.3505C53.0714 72.7357 52.194 72.9069 51.2096 72.9069C50.2253 72.9069 49.0269 72.6501 48.1281 72.1579C47.2293 71.6443 46.5231 70.9595 46.0095 70.0607C45.4959 69.1619 45.2605 68.1348 45.2605 66.9792C45.2605 65.8236 45.5173 64.7964 46.0095 63.8976C46.5231 62.9988 47.2079 62.2926 48.1067 61.779C49.0055 61.2654 50.0327 61.03 51.1882 61.03C52.3438 61.03 53.7562 61.3724 54.7192 62.0358C55.6822 62.7206 56.3028 63.6408 56.6238 64.8392H53.478V64.882Z" fill="black"/>
<path d="M58.6141 62.1856C58.2931 61.886 58.1433 61.5222 58.1433 61.0942C58.1433 60.6662 58.2931 60.281 58.6141 59.9814C58.9351 59.6818 59.3417 59.532 59.8339 59.532C60.3261 59.532 60.7327 59.6818 61.0323 59.9814C61.3533 60.281 61.5031 60.6448 61.5031 61.0942C61.5031 61.5436 61.3533 61.886 61.0323 62.1856C60.7113 62.4852 60.3047 62.635 59.8339 62.635C59.3631 62.635 58.9351 62.4852 58.6141 62.1856ZM61.2463 63.5765V72.8427H58.4001V63.5765H61.2463Z" fill="black"/>
<path d="M67.9658 65.9519H66.4464V72.864H63.6002V65.9519H62.573V63.5979H63.6002V63.3411C63.6002 62.2069 63.9212 61.3295 64.5846 60.7303C65.248 60.1311 66.1896 59.8315 67.4522 59.8315C68.7147 59.8315 67.8159 59.8315 67.9229 59.8315V62.2497C67.388 62.2069 67.0028 62.2925 66.7674 62.4851C66.5534 62.6777 66.425 63.0201 66.425 63.4909V63.5765H67.9443V65.9305L67.9658 65.9519Z" fill="black"/>
<path d="M74.4497 70.4457V72.8639H72.9945C71.9674 72.8639 71.1542 72.6071 70.5764 72.1149C69.9986 71.6013 69.7204 70.7881 69.7204 69.6539V65.9732H68.5862V63.6192H69.7204V61.3508H72.5665V63.6192H74.4283V65.9732H72.5665V69.6968C72.5665 69.9749 72.6307 70.1675 72.7591 70.2959C72.8875 70.4243 73.1229 70.4885 73.4225 70.4885H74.4283L74.4497 70.4457Z" fill="black"/>
<path d="M0.748993 77.9572C1.24119 77.0584 1.94738 76.3522 2.82477 75.8386C3.72356 75.325 4.72936 75.0896 5.86354 75.0896C6.99773 75.0896 8.43152 75.4534 9.41591 76.181C10.4003 76.9086 11.0637 77.9144 11.3847 79.177H8.26032C8.02492 78.6848 7.70393 78.321 7.27593 78.0642C6.84794 77.8074 6.35574 77.679 5.82074 77.679C4.94335 77.679 4.23716 77.9786 3.70217 78.5992C3.16717 79.1984 2.88897 80.033 2.88897 81.0387C2.88897 82.0445 3.16717 82.8791 3.70217 83.4783C4.23716 84.0775 4.94335 84.3985 5.82074 84.3985C6.69814 84.3985 6.84794 84.2701 7.27593 84.0133C7.70393 83.7565 8.02492 83.3927 8.26032 82.9005H11.3847C11.0423 84.1631 10.4003 85.1475 9.41591 85.8751C8.43152 86.6027 7.25453 86.9665 5.86354 86.9665C4.47256 86.9665 3.72356 86.7097 2.82477 86.2175C1.92598 85.7039 1.24119 85.0191 0.748993 84.1203C0.256798 83.2215 0 82.1943 0 81.0387C0 79.8832 0.256798 78.856 0.748993 77.9572Z" fill="black"/>
<path d="M13.118 79.7333C13.4818 79.0057 13.974 78.4493 14.5946 78.0641C15.2152 77.6789 15.9 77.4863 16.6704 77.4863C17.4408 77.4863 17.8902 77.6147 18.3824 77.8929C18.8745 78.1497 19.2597 78.5135 19.5165 78.9415V77.6361H22.3627V86.9022H19.5165V85.5969C19.2383 86.0248 18.8531 86.3672 18.361 86.6454C17.8688 86.9022 17.291 87.052 16.649 87.052C16.007 87.052 15.2152 86.8594 14.5946 86.4528C13.974 86.0676 13.4818 85.4899 13.118 84.7837C12.7542 84.0561 12.583 83.2215 12.583 82.2585C12.583 81.2955 12.7542 80.4609 13.118 79.7547V79.7333ZM18.9387 80.5679C18.5536 80.1613 18.0614 79.9473 17.505 79.9473C16.9486 79.9473 16.4564 80.1399 16.0712 80.5465C15.686 80.9531 15.472 81.5095 15.472 82.2157C15.472 82.9219 15.6646 83.4783 16.0712 83.9063C16.4564 84.3129 16.9486 84.5269 17.505 84.5269C18.0614 84.5269 18.5536 84.3129 18.9387 83.9063C19.3239 83.4997 19.5379 82.9433 19.5379 82.2371C19.5379 81.5309 19.3453 80.9745 18.9387 80.5679Z" fill="black"/>
<path d="M28.5258 77.9572C29.018 77.6576 29.5744 77.5078 30.195 77.5078V80.5252H29.4246C28.7184 80.5252 28.1834 80.675 27.8196 80.9746C27.4558 81.2742 27.2846 81.8092 27.2846 82.5796V86.8809H24.4385V77.6148H27.2846V79.1556C27.627 78.642 28.0336 78.2354 28.5258 77.9572Z" fill="black"/>
<path d="M31.5219 79.7334C31.8857 79.0058 32.3779 78.4494 32.9985 78.0642C33.6191 77.679 34.3039 77.4864 35.0743 77.4864C35.8447 77.4864 36.2299 77.6148 36.7434 77.8716C37.257 78.1284 37.6422 78.4708 37.9418 78.8988V74.5974H40.788V86.9023H37.9418V85.5755C37.685 86.0249 37.2998 86.3673 36.8076 86.6455C36.3154 86.9023 35.7377 87.0521 35.0957 87.0521C34.4537 87.0521 33.6405 86.8595 33.0199 86.4529C32.3993 86.0677 31.9071 85.4899 31.5433 84.7837C31.1795 84.0561 31.0083 83.2215 31.0083 82.2585C31.0083 81.2955 31.1795 80.461 31.5433 79.7548L31.5219 79.7334ZM37.3426 80.568C36.9574 80.1614 36.4652 79.9474 35.9089 79.9474C35.3525 79.9474 34.8603 80.14 34.4751 80.5466C34.0899 80.9531 33.8759 81.5095 33.8759 82.2157C33.8759 82.9219 34.0685 83.4783 34.4751 83.9063C34.8603 84.3129 35.3525 84.5269 35.9089 84.5269C36.4652 84.5269 36.9574 84.3129 37.3426 83.9063C37.7278 83.4997 37.9418 82.9433 37.9418 82.2371C37.9418 81.5309 37.7492 80.9746 37.3426 80.568Z" fill="black"/>
<path d="M46.6089 77.9572C47.1011 77.0584 47.8072 76.3522 48.6846 75.8386C49.5834 75.325 50.5892 75.0896 51.7234 75.0896C52.8576 75.0896 54.2914 75.4534 55.2758 76.181C56.2602 76.9086 56.9236 77.9144 57.2446 79.177H54.1202C53.8848 78.6848 53.5638 78.321 53.1358 78.0642C52.7078 77.8074 52.2156 77.679 51.6806 77.679C50.8032 77.679 50.097 77.9786 49.562 78.5992C49.027 79.1984 48.7488 80.033 48.7488 81.0387C48.7488 82.0445 49.027 82.8791 49.562 83.4783C50.097 84.0775 50.8032 84.3985 51.6806 84.3985C52.558 84.3985 52.7078 84.2701 53.1358 84.0133C53.5638 83.7565 53.8848 83.3927 54.1202 82.9005H57.2446C56.9022 84.1631 56.2602 85.1475 55.2758 85.8751C54.2914 86.6027 53.1144 86.9665 51.7234 86.9665C50.3324 86.9665 49.5834 86.7097 48.6846 86.2175C47.7858 85.7039 47.1011 85.0191 46.6089 84.1203C46.1167 83.2215 45.8599 82.1943 45.8599 81.0387C45.8599 79.8832 46.1167 78.856 46.6089 77.9572Z" fill="black"/>
<path d="M58.9779 79.7333C59.3417 79.0057 59.8339 78.4493 60.4545 78.0641C61.075 77.6789 61.7598 77.4863 62.5302 77.4863C63.3006 77.4863 63.75 77.6147 64.2422 77.8929C64.7344 78.1497 65.1196 78.5135 65.3764 78.9415V77.6361H68.2226V86.9022H65.3764V85.5969C65.0982 86.0248 64.713 86.3672 64.2208 86.6454C63.7286 86.9022 63.1508 87.052 62.5088 87.052C61.8668 87.052 61.075 86.8594 60.4545 86.4528C59.8339 86.0676 59.3417 85.4899 58.9779 84.7837C58.6141 84.0561 58.4429 83.2215 58.4429 82.2585C58.4429 81.2955 58.6141 80.4609 58.9779 79.7547V79.7333ZM64.7986 80.5679C64.4134 80.1613 63.9212 79.9473 63.3648 79.9473C62.8084 79.9473 62.3162 80.1399 61.931 80.5465C61.5458 80.9531 61.3318 81.5095 61.3318 82.2157C61.3318 82.9219 61.5244 83.4783 61.931 83.9063C62.3162 84.3129 62.8084 84.5269 63.3648 84.5269C63.9212 84.5269 64.4134 84.3129 64.7986 83.9063C65.1838 83.4997 65.3978 82.9433 65.3978 82.2371C65.3978 81.5309 65.2052 80.9745 64.7986 80.5679Z" fill="black"/>
<path d="M74.9421 79.9687H73.4227V86.8809H70.5765V79.9687H69.5493V77.6148H70.5765V77.358C70.5765 76.2238 70.8975 75.3464 71.5609 74.7472C72.2243 74.148 73.1659 73.8484 74.4285 73.8484C75.6911 73.8484 74.7923 73.8484 74.8993 73.8484V76.2666C74.3643 76.2238 73.9791 76.3094 73.7437 76.502C73.5297 76.6946 73.4013 77.037 73.4013 77.5078V77.5934H74.9207V79.9473L74.9421 79.9687Z" fill="black"/>
<path d="M84.9573 82.922H78.5373C78.5801 83.4998 78.7727 83.9278 79.0937 84.2488C79.4147 84.5484 79.8213 84.6982 80.2921 84.6982C80.9983 84.6982 81.4905 84.3986 81.7687 83.7994H84.7861C84.6363 84.3986 84.3581 84.955 83.9515 85.4472C83.5449 85.9394 83.0313 86.3246 82.4321 86.6028C81.8329 86.881 81.1481 87.0094 80.3777 87.0094C79.6073 87.0094 78.6657 86.8168 77.9595 86.4316C77.2533 86.0464 76.697 85.49 76.2904 84.7624C75.8838 84.0348 75.6912 83.2002 75.6912 82.2372C75.6912 81.2742 75.8838 80.4397 76.2904 79.7121C76.6756 78.9845 77.2319 78.4281 77.9381 78.0429C78.6443 77.6577 79.4575 77.4651 80.3777 77.4651C81.2979 77.4651 82.0683 77.6577 82.7745 78.0215C83.4807 78.4067 84.0157 78.9417 84.4009 79.6265C84.7861 80.3327 85.0001 81.1459 85.0001 82.066C85.0001 82.9862 85.0001 82.601 84.9573 82.9006V82.922ZM82.1111 81.3599C82.1111 80.8677 81.9399 80.4825 81.6189 80.2043C81.2765 79.9261 80.8699 79.7763 80.3777 79.7763C79.8855 79.7763 79.5003 79.9047 79.1793 80.1829C78.8583 80.4611 78.6443 80.8463 78.5801 81.3599H82.1325H82.1111Z" fill="black"/>
<path d="M70.4266 14.6993H56.4312C63.8569 10.8687 65.6331 4.89819 65.7187 4.5558L62.4659 3.63561C62.3803 3.9352 60.7539 9.17815 53.6492 12.2597C54.6336 11.0827 55.3826 9.73455 55.5538 8.27936C55.725 6.82418 55.404 4.6414 52.836 2.50142C50.482 0.575435 48.6202 0.789433 47.4861 1.30303C44.2547 2.75821 43.0777 8.57896 42.6283 12.4523C42.1789 8.57896 41.0019 2.75821 37.7705 1.30303C36.615 0.789433 34.7532 0.575435 32.4206 2.50142C29.8526 4.62 29.5102 6.80278 29.7028 8.27936C29.8954 9.84155 30.7514 11.2967 31.8428 12.5379C25.2089 9.62755 22.8977 4.4702 22.7693 4.1492L19.6663 5.45459C19.7305 5.60439 21.1429 8.92136 24.8665 12.0671C25.8937 12.9445 27.1562 13.8433 28.6756 14.6779H15.258C12.797 14.6779 10.7854 16.6895 10.7854 19.1505V35.3715C11.1278 34.8579 11.513 34.3871 11.9624 33.9591C12.6258 33.3171 13.3748 32.8035 14.1666 32.4183V19.1291C14.1666 18.5299 14.6588 18.0377 15.258 18.0377H70.448C71.0472 18.0377 71.5394 18.5299 71.5394 19.1291V42.4334H30.9226C29.767 41.2993 28.3118 40.5931 26.7496 40.3363C26.6854 39.8869 26.5999 39.4375 26.4715 39.0095C26.3217 38.5387 26.1505 38.0893 25.9151 37.6613C25.5727 37.0193 25.1447 36.4415 24.6525 35.9065C23.7537 34.9863 22.6195 34.2801 21.3783 33.8949C18.6819 33.0817 15.7502 33.7879 13.7386 35.7353C13.1822 36.2703 12.69 36.9123 12.3262 37.5971C11.4274 39.0095 10.9352 40.9997 10.8282 43.696C10.8282 44.017 10.8282 44.338 10.8282 44.6804V51.3572C10.8282 53.8181 12.8398 55.8297 15.3008 55.8297H70.4908C72.9518 55.8297 74.9634 53.8181 74.9634 51.3572V19.1719C74.9634 16.7109 72.9518 14.6993 70.4908 14.6993H70.4266ZM33.0412 7.87277C32.9984 7.53037 32.87 6.50318 34.5606 5.11219C34.9458 4.7912 35.6092 4.3204 36.1014 4.3204C36.5936 4.3204 36.294 4.3204 36.3796 4.3846C37.8347 5.02659 39.0117 9.58475 39.3755 14.0359C36.9146 12.7519 33.298 10.1411 33.0412 7.87277ZM52.2154 7.87277C51.9372 10.1411 48.342 12.7519 45.8597 14.0359C46.2449 9.60615 47.4219 5.04799 48.8556 4.3846C48.9412 4.3418 49.0268 4.3204 49.1338 4.3204C49.6474 4.3204 50.3108 4.7912 50.6746 5.11219C52.3652 6.50318 52.2368 7.53037 52.194 7.87277H52.2154ZM28.5258 51.1432C28.2048 51.4642 27.8196 51.721 27.413 51.9136L27.2632 51.9991C26.9208 52.2131 26.4715 52.3843 25.9151 52.5127H15.2152C14.616 52.5127 14.1238 52.0205 14.1238 51.4214V44.766C14.1238 41.6202 14.6588 40.1437 15.1296 39.4589L15.2152 39.3091C15.4292 38.9025 15.7074 38.5387 16.0284 38.2177C17.1625 37.1049 18.8317 36.7197 20.3297 37.1691C21.0359 37.3831 21.6565 37.7683 22.1701 38.3033C22.1701 38.3033 22.1701 38.3033 22.1915 38.3247C23.0689 39.2449 23.4969 40.5075 23.3471 41.8128L23.2615 42.6902L23.1331 43.8458L25.1661 43.6746C26.4715 43.5676 27.7126 44.0384 28.6114 44.98C28.911 45.301 29.1678 45.6434 29.339 46.0072C29.4888 46.2854 29.5958 46.5636 29.66 46.8632C30.0666 48.404 29.6172 50.0304 28.483 51.1432H28.5258ZM71.518 51.4C71.518 51.9992 71.0258 52.4913 70.4266 52.4913H31.7786C32.7844 51.079 33.298 49.367 33.2338 47.6336C33.2124 47.0772 33.1268 46.5208 32.977 45.9644C32.977 45.9216 32.9556 45.8788 32.9342 45.8146H71.518V51.3786V51.4Z" fill="#C23519"/>
</svg>
